<svg width="38" height="38" viewBox="0 0 38 38" fill="none" xmlns="http://www.w3.org/2000/svg">
<rect width="38" height="38" rx="6" fill="white" fill-opacity="0.4"/>
<path d="M7 30.5304C7 30.1894 7.12844 29.8609 7.35976 29.6103L28.6466 6.54948C29.4842 5.64207 31 6.23472 31 7.46961V7.46961C31 7.81063 30.8716 8.13915 30.6402 8.38973L9.35336 31.4505C8.51576 32.3579 7 31.7653 7 30.5304V30.5304ZM7 7.46961C7 6.23472 8.51576 5.64208 9.35337 6.54948L30.6402 29.6103C30.8716 29.8609 31 30.1894 31 30.5304V30.5304C31 31.7653 29.4842 32.3579 28.6466 31.4505L7.35975 8.38973C7.12844 8.13915 7 7.81063 7 7.46961V7.46961Z" fill="white"/>
</svg>
