<svg width="32" height="32" viewBox="0 0 32 32" fill="none" xmlns="http://www.w3.org/2000/svg">
<path d="M6.87206 7.21803C4.6806 9.49517 3.33317 12.5904 3.33317 16.0003C3.33317 22.996 9.00423 28.667 15.9998 28.667C17.7111 28.667 19.3432 28.3277 20.8323 27.7126C21.0144 26.5243 20.6149 25.3841 20.4515 24.9851C20.088 24.0991 18.888 22.5841 16.8848 20.4824C16.3501 19.9203 16.3844 19.4892 16.5755 18.208L16.5975 18.0632C16.7274 17.1856 16.9452 16.6667 19.8983 16.1979C21.3985 15.9601 21.7931 16.5597 22.34 17.39C22.4005 17.482 22.4609 17.5723 22.5229 17.6627C23.0423 18.4223 23.4273 18.596 24.0087 18.8605C24.2691 18.9786 24.5942 19.1276 25.0297 19.375C26.0621 19.965 26.0621 20.6311 26.0621 22.0917V22.2573C26.0621 22.8774 26.0014 23.4217 25.9061 23.8947C27.6339 21.7296 28.6665 18.9855 28.6665 16.0003C28.6665 10.7767 25.5046 6.29164 20.9903 4.35462C20.1144 4.9457 18.9129 5.78349 18.4936 6.35782C18.2792 6.65134 17.9762 8.14962 16.9905 8.27328C16.7323 8.30569 16.3859 8.28298 16.0188 8.25936C15.0348 8.19541 13.6885 8.10909 13.2575 9.279C12.9839 10.0204 12.9358 12.0332 13.821 13.078C13.9627 13.2448 13.9901 13.5536 13.8938 13.9C13.7673 14.3549 13.5118 14.6317 13.4321 14.6888C13.2795 14.6011 12.975 14.2477 12.7689 14.0072C12.2719 13.4298 11.6521 12.7107 10.8508 12.4881C10.5594 12.4075 10.2391 12.3407 9.92851 12.2753C9.05914 12.0931 8.07435 11.8858 7.84554 11.3976C7.6785 11.0401 7.67923 10.5477 7.67988 10.0274C7.67988 9.36806 7.67988 8.62245 7.35688 7.89771C7.23206 7.61722 7.06491 7.39405 6.87206 7.21803ZM15.9998 31.8337C7.25532 31.8337 0.166504 24.7448 0.166504 16.0003C0.166504 7.25581 7.25532 0.166992 15.9998 0.166992C24.7443 0.166992 31.8332 7.25581 31.8332 16.0003C31.8332 24.7448 24.7443 31.8337 15.9998 31.8337Z" fill="white"/>
</svg>
